<?xml version="1.0" encoding="UTF-8" standalone="no"?>
<!-- Created with Inkscape (http://www.inkscape.org/) -->

<svg
   xmlns:dc="http://purl.org/dc/elements/1.1/"
   xmlns:cc="http://creativecommons.org/ns#"
   xmlns:rdf="http://www.w3.org/1999/02/22-rdf-syntax-ns#"
   xmlns:svg="http://www.w3.org/2000/svg"
   xmlns="http://www.w3.org/2000/svg"
   xmlns:sodipodi="http://sodipodi.sourceforge.net/DTD/sodipodi-0.dtd"
   xmlns:inkscape="http://www.inkscape.org/namespaces/inkscape"
   height="297mm"
   width="210mm"
   viewBox="0 0 744.09448819 1052.3622047"
   id="svg3204"
   version="1.1"
   inkscape:version="0.91 r13725"
   sodipodi:docname="pdf2.svg">
  <defs
     id="defs3210" />
  <sodipodi:namedview
     pagecolor="#ffffff"
     bordercolor="#666666"
     borderopacity="1"
     objecttolerance="10"
     gridtolerance="10"
     guidetolerance="10"
     inkscape:pageopacity="0"
     inkscape:pageshadow="2"
     inkscape:window-width="1541"
     inkscape:window-height="876"
     id="namedview3208"
     showgrid="false"
     showguides="false"
     inkscape:zoom="0.63429568"
     inkscape:cx="232.40875"
     inkscape:cy="523.17193"
     inkscape:window-x="1659"
     inkscape:window-y="24"
     inkscape:window-maximized="1"
     inkscape:current-layer="g3" />
  <metadata
     id="metadata3206">
    <rdf:RDF>
      <cc:Work
         rdf:about="">
        <dc:format>image/svg+xml</dc:format>
        <dc:type
           rdf:resource="http://purl.org/dc/dcmitype/StillImage" />
        <dc:title />
      </cc:Work>
    </rdf:RDF>
  </metadata>
  <g
     transform="matrix(9.5553687,0,0,9.759068,-1636.382,-193.54609)"
     id="g3">
    <path
       inkscape:connector-curvature="0"
       style="fill:#cc4b4c"
       d="m 19.514,33.324 0,0 c -0.348,0 -0.682,-0.113 -0.967,-0.326 -1.041,-0.781 -1.181,-1.65 -1.115,-2.242 0.182,-1.628 2.195,-3.332 5.985,-5.068 1.504,-3.296 2.935,-7.357 3.788,-10.75 -0.998,-2.172 -1.968,-4.99 -1.261,-6.643 0.248,-0.579 0.557,-1.023 1.134,-1.215 0.228,-0.076 0.804,-0.172 1.016,-0.172 0.504,0 0.947,0.649 1.261,1.049 0.295,0.376 0.964,1.173 -0.373,6.802 1.348,2.784 3.258,5.62 5.088,7.562 1.311,-0.237 2.439,-0.358 3.358,-0.358 1.566,0 2.515,0.365 2.902,1.117 0.32,0.622 0.189,1.349 -0.39,2.16 -0.557,0.779 -1.325,1.191 -2.22,1.191 -1.216,0 -2.632,-0.768 -4.211,-2.285 -2.837,0.593 -6.15,1.651 -8.828,2.822 -0.836,1.774 -1.637,3.203 -2.383,4.251 -1.025,1.435 -1.909,2.105 -2.784,2.105 z m 2.662,-5.126 c -2.137,1.201 -3.008,2.188 -3.071,2.744 -0.01,0.092 -0.037,0.334 0.431,0.692 0.149,-0.047 1.019,-0.444 2.64,-3.436 z m 13.637,-4.442 c 0.815,0.627 1.014,0.944 1.547,0.944 0.234,0 0.901,-0.01 1.21,-0.441 0.149,-0.209 0.207,-0.343 0.23,-0.415 -0.123,-0.065 -0.286,-0.197 -1.175,-0.197 -0.505,0.001 -1.14,0.023 -1.812,0.109 z m -7.47,-6.582 c -0.715,2.474 -1.659,5.145 -2.674,7.564 2.09,-0.811 4.362,-1.519 6.496,-2.02 -1.35,-1.568 -2.699,-3.526 -3.822,-5.544 z M 27.736,8.712 c -0.098,0.033 -1.33,1.757 0.096,3.216 0.949,-2.115 -0.053,-3.23 -0.096,-3.216 z"
       id="path9" />
    <path
       inkscape:connector-curvature="0"
       style="fill:#cc4b4c"
       d="M 48.037,56 7.963,56 C 7.155,56 6.5,55.345 6.5,54.537 L 6.5,39 l 43,0 0,15.537 C 49.5,55.345 48.845,56 48.037,56 Z"
       id="path11" />
    <g
       id="g13">
      <path
         inkscape:connector-curvature="0"
         style="fill:#ffffff"
         d="m 17.385,53 -1.641,0 0,-10.076 2.898,0 c 0.428,0 0.852,0.068 1.271,0.205 0.419,0.137 0.795,0.342 1.128,0.615 0.333,0.273 0.602,0.604 0.807,0.991 0.205,0.387 0.308,0.822 0.308,1.306 0,0.511 -0.087,0.973 -0.26,1.388 -0.173,0.415 -0.415,0.764 -0.725,1.046 -0.31,0.282 -0.684,0.501 -1.121,0.656 -0.437,0.155 -0.921,0.232 -1.449,0.232 l -1.217,0 0,3.637 z m 0,-8.832 0,3.992 1.504,0 c 0.2,0 0.398,-0.034 0.595,-0.103 0.196,-0.068 0.376,-0.18 0.54,-0.335 0.164,-0.155 0.296,-0.371 0.396,-0.649 0.1,-0.278 0.15,-0.622 0.15,-1.032 0,-0.164 -0.023,-0.354 -0.068,-0.567 -0.046,-0.214 -0.139,-0.419 -0.28,-0.615 -0.142,-0.196 -0.34,-0.36 -0.595,-0.492 -0.255,-0.132 -0.593,-0.198 -1.012,-0.198 l -1.23,0 z"
         id="path15" />
      <path
         inkscape:connector-curvature="0"
         style="fill:#ffffff"
         d="m 32.219,47.682 c 0,0.829 -0.089,1.538 -0.267,2.126 -0.178,0.588 -0.403,1.08 -0.677,1.477 -0.274,0.397 -0.581,0.709 -0.923,0.937 -0.342,0.228 -0.672,0.398 -0.991,0.513 -0.319,0.114 -0.611,0.187 -0.875,0.219 C 28.222,52.984 28.026,53 27.898,53 l -3.814,0 0,-10.076 3.035,0 c 0.848,0 1.593,0.135 2.235,0.403 0.642,0.268 1.176,0.627 1.6,1.073 0.424,0.446 0.74,0.955 0.95,1.524 0.21,0.57 0.315,1.156 0.315,1.758 z m -4.867,4.115 c 1.112,0 1.914,-0.355 2.406,-1.066 0.492,-0.711 0.738,-1.741 0.738,-3.09 0,-0.419 -0.05,-0.834 -0.15,-1.244 -0.101,-0.41 -0.294,-0.781 -0.581,-1.114 -0.287,-0.333 -0.677,-0.602 -1.169,-0.807 -0.492,-0.205 -1.13,-0.308 -1.914,-0.308 l -0.957,0 0,7.629 1.627,0 z"
         id="path17" />
      <path
         inkscape:connector-curvature="0"
         style="fill:#ffffff"
         d="m 36.266,44.168 0,3.172 4.211,0 0,1.121 -4.211,0 0,4.539 -1.668,0 0,-10.076 6.302,0 0,1.244 -4.634,0 z"
         id="path19" />
    </g>
    <path
       inkscape:connector-curvature="0"
       style="fill:#cc4b4c"
       d="m 197.92513,91.949808 0,0 c -0.45183,0 -0.88548,-0.155709 -1.25551,-0.449218 -1.3516,-1.076192 -1.53337,-2.273647 -1.44767,-3.089405 0.2363,-2.243333 2.8499,-4.591392 7.77068,-6.983544 1.95273,-4.541787 3.81069,-10.13773 4.91819,-14.813186 -1.29577,-2.992954 -2.55517,-6.876071 -1.63723,-9.153854 0.32199,-0.797844 0.72318,-1.409662 1.47234,-1.674232 0.29602,-0.104726 1.04388,-0.237011 1.31913,-0.237011 0.65437,0 1.22955,0.894302 1.63723,1.44549 0.38302,0.518116 1.25162,1.616357 -0.48429,9.372949 1.75019,3.836275 4.23006,7.744202 6.60606,10.420222 1.70215,-0.32658 3.1667,-0.493315 4.35989,-0.493315 2.03323,0 3.26538,0.50296 3.76784,1.539194 0.41548,0.857096 0.24539,1.858878 -0.50636,2.976411 -0.72318,1.073438 -1.72033,1.641161 -2.88236,1.641161 -1.5788,0 -3.41728,-1.05828 -5.46739,-3.148659 -3.68345,0.817136 -7.98491,2.275028 -11.46192,3.888628 -1.08543,2.444517 -2.12542,4.413634 -3.09399,5.857746 -1.33082,1.977385 -2.47857,2.900623 -3.61464,2.900623 z m 3.45624,-7.063466 c -2.7746,1.654939 -3.90547,3.014995 -3.98727,3.781145 -0.013,0.126773 -0.048,0.460242 0.5596,0.953556 0.19345,-0.06476 1.32302,-0.611819 3.42767,-4.734701 z m 17.70573,-6.120937 c 1.05816,0.863985 1.31654,1.300802 2.00856,1.300802 0.30382,0 1.16983,-0.01378 1.57102,-0.607685 0.19345,-0.287996 0.26876,-0.472644 0.29862,-0.571856 -0.1597,-0.08957 -0.37133,-0.271461 -1.52557,-0.271461 -0.65567,0.0014 -1.48013,0.03169 -2.35263,0.1502 z m -9.69875,-9.069806 c -0.92833,3.409103 -2.15398,7.089665 -3.47181,10.42297 2.71357,-1.117532 5.66344,-2.093134 8.43414,-2.783496 -1.75278,-2.160658 -3.50427,-4.858728 -4.96233,-7.639474 z m -0.7881,-11.660385 c -0.12724,0.04547 -1.72682,2.421091 0.12464,4.431548 1.23214,-2.914404 -0.0688,-4.450839 -0.12464,-4.431548 z"
       id="path9-6" />
    <path
       inkscape:connector-curvature="0"
       style="fill:#e9e9e0"
       d="m 221.22131,38.124377 -35.63629,0 c -0.99217,0 -1.79644,0.833374 -1.79644,2.450505 l 0,67.527588 c 0,0.43895 0.80427,1.27232 1.79644,1.27232 l 49.20712,0 c 0.99215,0 1.79642,-0.83337 1.79642,-1.27232 l 0,-53.46581 c 0,-0.88554 -0.11426,-1.170542 -0.31557,-1.380474 l -14.28792,-14.80482 c -0.20261,-0.208663 -0.47767,-0.326989 -0.76376,-0.326989 z"
       id="path5-3" />
    <path
       inkscape:connector-curvature="0"
       style="fill:#cc4b4c"
       d="m 193.60416,98.846196 0,0 c -0.61102,0 -1.19747,-0.21471 -1.69788,-0.61943 -1.82783,-1.483986 -2.07364,-3.135179 -1.95775,-4.260041 0.31956,-3.093375 3.85405,-6.331156 10.50865,-9.629741 2.64076,-6.262756 5.15336,-13.979091 6.65108,-20.426155 -1.75232,-4.127033 -3.45547,-9.481534 -2.2141,-12.622411 0.43545,-1.100163 0.978,-1.943811 1.99112,-2.308631 0.40032,-0.144408 1.41168,-0.326818 1.78392,-0.326818 0.88493,0 1.66278,1.23317 2.2141,1.993212 0.51797,0.71444 1.69262,2.228827 -0.65493,12.924529 2.36686,5.289897 5.72051,10.678606 8.93368,14.368614 2.30189,-0.450326 4.28246,-0.680241 5.89607,-0.680241 2.74963,0 4.41592,0.693538 5.09543,2.122422 0.56187,1.181865 0.33185,2.563243 -0.68478,4.10423 -0.97799,1.480183 -2.32649,2.263028 -3.89795,2.263028 -2.13508,0 -4.62134,-1.459283 -7.39379,-4.341745 -4.98131,1.126762 -10.79837,3.137078 -15.50049,5.362102 -1.46787,3.370791 -2.8743,6.086043 -4.18414,8.077354 -1.79972,2.726652 -3.35187,3.999722 -4.88824,3.999722 z m 4.67403,-9.739946 c -3.75221,2.282028 -5.28154,4.157434 -5.39217,5.213894 -0.0176,0.174809 -0.0649,0.634634 0.75677,1.314875 0.26162,-0.08929 1.78919,-0.843649 4.6354,-6.528769 z m 23.94427,-8.440274 c 1.431,1.191365 1.78041,1.793701 2.71627,1.793701 0.41086,0 1.58201,-0.019 2.12455,-0.83795 0.26162,-0.397122 0.36347,-0.651736 0.40384,-0.788542 -0.21597,-0.12351 -0.50216,-0.374323 -2.0631,-0.374323 -0.88669,0.0019 -2.00164,0.04369 -3.18156,0.207114 z m -13.11607,-12.50651 c -1.25542,4.700869 -2.91292,9.776056 -4.69508,14.372412 3.66968,-1.540987 7.65893,-2.886263 11.40587,-3.838214 -2.37036,-2.979368 -4.73899,-6.699782 -6.71079,-10.534198 z M 208.04061,52.08076 c -0.17207,0.0627 -2.33526,3.338488 0.16856,6.110745 1.66628,-4.018726 -0.0931,-6.137346 -0.16856,-6.110745 z"
       id="path9-7" />
    <polygon
       transform="matrix(1.2496243,0,0,1.3063912,174.76191,37.889385)"
       style="fill:#d9d7ca"
       points="49.349,12 37.5,0.151 37.5,12 "
       id="polygon7-5" />
    <flowRoot
       xml:space="preserve"
       id="flowRoot3342"
       style="fill:black;stroke:none;stroke-opacity:1;stroke-width:1px;stroke-linejoin:miter;stroke-linecap:butt;fill-opacity:1;font-family:sans-serif;font-style:normal;font-weight:normal;font-size:40px;line-height:125%;letter-spacing:0px;word-spacing:0px"><flowRegion
         id="flowRegion3344"><rect
           id="rect3346"
           width="436.99786"
           height="107.01988"
           x="-873.99573"
           y="399.09497" /></flowRegion><flowPara
         id="flowPara3348" /></flowRoot>    <text
       xml:space="preserve"
       style="font-style:normal;font-weight:normal;font-size:18.63994408px;line-height:125%;font-family:sans-serif;letter-spacing:0px;word-spacing:0px;fill:#000000;fill-opacity:1;stroke:none;stroke-width:1px;stroke-linecap:butt;stroke-linejoin:miter;stroke-opacity:1"
       x="71.560783"
       y="33.203144"
       id="text3358"
       sodipodi:linespacing="125%"
       transform="scale(1.0106027,0.98950854)"><tspan
         sodipodi:role="line"
         id="tspan3360"
         x="71.560783"
         y="33.203144" /></text>
    <flowRoot
       xml:space="preserve"
       id="flowRoot3370"
       style="fill:black;stroke:none;stroke-opacity:1;stroke-width:1px;stroke-linejoin:miter;stroke-linecap:butt;fill-opacity:1;font-family:sans-serif;font-style:normal;font-weight:normal;font-size:180px;line-height:125%;letter-spacing:0px;word-spacing:0px"><flowRegion
         id="flowRegion3372"><rect
           id="rect3374"
           width="508.34445"
           height="182.82564"
           x="-898.52112"
           y="196.20309" /></flowRegion><flowPara
         id="flowPara3376" /></flowRoot>    <flowRoot
       xml:space="preserve"
       id="flowRoot3402"
       style="font-style:normal;font-weight:normal;font-size:180px;line-height:125%;font-family:sans-serif;letter-spacing:0px;word-spacing:0px;fill:#000000;fill-opacity:1;stroke:none;stroke-width:1px;stroke-linecap:butt;stroke-linejoin:miter;stroke-opacity:1"
       transform="matrix(0.10465321,0,0,0.1024688,171.25263,19.832436)"><flowRegion
         id="flowRegion3404"><rect
           id="rect3406"
           width="731.30255"
           height="198.43271"
           x="-1219.5808"
           y="597.52765" /></flowRegion><flowPara
         id="flowPara3408">.DOC</flowPara></flowRoot>  </g>
  <g
     inkscape:groupmode="layer"
     id="layer2"
     inkscape:label="icon" />
  <g
     inkscape:groupmode="layer"
     id="layer3"
     inkscape:label="fond" />
</svg>
